<svg xmlns="http://www.w3.org/2000/svg" viewBox="0 0 128 128">
    <rect width="128" height="128" fill="#E44D26"/>
    <path d="M37.594 115.334l-8.826-98.223h78.464l-8.843 98.223-35.798 9.938z" fill="#F16529"/>
    <path d="M64 67.153l22.053 6.132 1.625-18.192H64v-6.559h37.49700000000001l-.329 3.683-2.982 33.403-.047.533-.025.055H64v-6.558zm0-17.305v-6.559h23.277l-.256 2.872-1.733 19.369-.016.181L64 49.848z" fill="#EBEBEB"/>
    <path d="M64 49.848v6.559h23.85l-1.734 19.369-.017.181-.301 3.362L64 67.153v6.559l22.053-6.132.777-8.703.174-1.938.006-.064H64z" fill="#FFFFFF"/>
</svg>