<?xml version="1.0" encoding="utf-8"?>
<!-- Generator: Adobe Illustrator 19.1.0, SVG Export Plug-In . SVG Version: 6.00 Build 0)  -->
<svg version="1.1" id="Layer_1" xmlns="http://www.w3.org/2000/svg" xmlns:xlink="http://www.w3.org/1999/xlink" x="0px" y="0px"
	 viewBox="0 0 125 125" style="enable-background:new 0 0 250 250;" xml:space="preserve">
<style type="text/css">
    .st0{fill:#DD0031;}
    .st1{fill:#C3002F;}
    .st2{fill:#FFFFFF;}
</style>
	<g>
    <polygon class="st0" points="62.5,15 62.5,15 62.5,15 15.95,31.6 23.05,93.15 62.5,115 62.5,115 62.5,115 101.95,93.15 109.05,31.6  "/>
		<polygon class="st1" points="62.5,15 62.5,26.1 62.5,26.05 62.5,76.7 62.5,76.7 62.5,115 62.5,115 101.95,93.15 109.05,31.6 62.5,15  "/>
		<path class="st2" d="M62.5,26.05L33.4,91.3h0h10.85h0l5.85-14.6h24.7l5.85,14.6h0h10.85h0L62.5,26.05L62.5,26.05L62.5,26.05L62.5,26.05
        L62.5,26.05z M71,67.7H54l8.5-20.45L71,67.7z"/>
</g>
</svg>
